<svg width="60" height="12" viewBox="0 0 60 12" fill="none" xmlns="http://www.w3.org/2000/svg">
<path d="M6.20672 8.94091L8.5711 10.4387C8.87335 10.6299 9.24835 10.3453 9.15872 9.99241L8.47585 7.30553C8.45656 7.23069 8.45878 7.15192 8.48227 7.07829C8.50575 7.00465 8.54954 6.93914 8.6086 6.88928L10.7288 5.12491C11.0071 4.89316 10.8638 4.43078 10.5057 4.40753L7.7371 4.22753C7.66255 4.22224 7.59105 4.19589 7.5309 4.15154C7.47075 4.1072 7.42444 4.04668 7.39735 3.97703L6.3646 1.37678C6.33648 1.30288 6.28656 1.23928 6.22146 1.1944C6.15636 1.14952 6.07916 1.12549 6.0001 1.12549C5.92103 1.12549 5.84383 1.14952 5.77873 1.1944C5.71364 1.23928 5.66372 1.30288 5.6356 1.37678L4.60285 3.97703C4.57581 4.04675 4.52952 4.10734 4.46937 4.15176C4.40922 4.19618 4.33768 4.22259 4.2631 4.22791L1.49447 4.40791C1.13672 4.43078 0.992723 4.89316 1.27135 5.12491L3.3916 6.88966C3.45059 6.93948 3.49434 7.00493 3.51782 7.07849C3.5413 7.15205 3.54356 7.23074 3.52435 7.30553L2.89135 9.79741C2.78372 10.2208 3.2341 10.5624 3.59635 10.3325L5.79385 8.94091C5.85561 8.90164 5.92728 8.88078 6.00047 8.88078C6.07366 8.88078 6.14533 8.90164 6.2071 8.94091H6.20672Z" fill="#FF8A00"/>
<path d="M18.2067 8.94091L20.5711 10.4387C20.8733 10.6299 21.2483 10.3453 21.1587 9.99241L20.4758 7.30553C20.4566 7.23069 20.4588 7.15192 20.4823 7.07829C20.5057 7.00465 20.5495 6.93914 20.6086 6.88928L22.7288 5.12491C23.0071 4.89316 22.8638 4.43078 22.5057 4.40753L19.7371 4.22753C19.6626 4.22224 19.591 4.19589 19.5309 4.15154C19.4708 4.1072 19.4244 4.04668 19.3973 3.97703L18.3646 1.37678C18.3365 1.30288 18.2866 1.23928 18.2215 1.1944C18.1564 1.14952 18.0792 1.12549 18.0001 1.12549C17.921 1.12549 17.8438 1.14952 17.7787 1.1944C17.7136 1.23928 17.6637 1.30288 17.6356 1.37678L16.6028 3.97703C16.5758 4.04675 16.5295 4.10734 16.4694 4.15176C16.4092 4.19618 16.3377 4.22259 16.2631 4.22791L13.4945 4.40791C13.1367 4.43078 12.9927 4.89316 13.2713 5.12491L15.3916 6.88966C15.4506 6.93948 15.4943 7.00493 15.5178 7.07849C15.5413 7.15205 15.5436 7.23074 15.5243 7.30553L14.8913 9.79741C14.7837 10.2208 15.2341 10.5624 15.5963 10.3325L17.7938 8.94091C17.8556 8.90164 17.9273 8.88078 18.0005 8.88078C18.0737 8.88078 18.1453 8.90164 18.2071 8.94091H18.2067Z" fill="#FF8A00"/>
<path d="M30.2067 8.94091L32.5711 10.4387C32.8733 10.6299 33.2483 10.3453 33.1587 9.99241L32.4758 7.30553C32.4566 7.23069 32.4588 7.15192 32.4823 7.07829C32.5057 7.00465 32.5495 6.93914 32.6086 6.88928L34.7288 5.12491C35.0071 4.89316 34.8638 4.43078 34.5057 4.40753L31.7371 4.22753C31.6626 4.22224 31.591 4.19589 31.5309 4.15154C31.4708 4.1072 31.4244 4.04668 31.3973 3.97703L30.3646 1.37678C30.3365 1.30288 30.2866 1.23928 30.2215 1.1944C30.1564 1.14952 30.0792 1.12549 30.0001 1.12549C29.921 1.12549 29.8438 1.14952 29.7787 1.1944C29.7136 1.23928 29.6637 1.30288 29.6356 1.37678L28.6028 3.97703C28.5758 4.04675 28.5295 4.10734 28.4694 4.15176C28.4092 4.19618 28.3377 4.22259 28.2631 4.22791L25.4945 4.40791C25.1367 4.43078 24.9927 4.89316 25.2713 5.12491L27.3916 6.88966C27.4506 6.93948 27.4943 7.00493 27.5178 7.07849C27.5413 7.15205 27.5436 7.23074 27.5243 7.30553L26.8913 9.79741C26.7837 10.2208 27.2341 10.5624 27.5963 10.3325L29.7938 8.94091C29.8556 8.90164 29.9273 8.88078 30.0005 8.88078C30.0737 8.88078 30.1453 8.90164 30.2071 8.94091H30.2067Z" fill="#FF8A00"/>
<path d="M42.2067 8.94091L44.5711 10.4387C44.8733 10.6299 45.2483 10.3453 45.1587 9.99241L44.4758 7.30553C44.4566 7.23069 44.4588 7.15192 44.4823 7.07829C44.5057 7.00465 44.5495 6.93914 44.6086 6.88928L46.7288 5.12491C47.0071 4.89316 46.8638 4.43078 46.5057 4.40753L43.7371 4.22753C43.6626 4.22224 43.591 4.19589 43.5309 4.15154C43.4708 4.1072 43.4244 4.04668 43.3973 3.97703L42.3646 1.37678C42.3365 1.30288 42.2866 1.23928 42.2215 1.1944C42.1564 1.14952 42.0792 1.12549 42.0001 1.12549C41.921 1.12549 41.8438 1.14952 41.7787 1.1944C41.7136 1.23928 41.6637 1.30288 41.6356 1.37678L40.6028 3.97703C40.5758 4.04675 40.5295 4.10734 40.4694 4.15176C40.4092 4.19618 40.3377 4.22259 40.2631 4.22791L37.4945 4.40791C37.1367 4.43078 36.9927 4.89316 37.2713 5.12491L39.3916 6.88966C39.4506 6.93948 39.4943 7.00493 39.5178 7.07849C39.5413 7.15205 39.5436 7.23074 39.5243 7.30553L38.8913 9.79741C38.7837 10.2208 39.2341 10.5624 39.5963 10.3325L41.7938 8.94091C41.8556 8.90164 41.9273 8.88078 42.0005 8.88078C42.0737 8.88078 42.1453 8.90164 42.2071 8.94091H42.2067Z" fill="#FF8A00"/>
<path d="M54.2067 8.94091L56.5711 10.4387C56.8733 10.6299 57.2483 10.3453 57.1587 9.99241L56.4758 7.30553C56.4566 7.23069 56.4588 7.15192 56.4823 7.07829C56.5057 7.00465 56.5495 6.93914 56.6086 6.88928L58.7288 5.12491C59.0071 4.89316 58.8638 4.43078 58.5057 4.40753L55.7371 4.22753C55.6626 4.22224 55.591 4.19589 55.5309 4.15154C55.4708 4.1072 55.4244 4.04668 55.3973 3.97703L54.3646 1.37678C54.3365 1.30288 54.2866 1.23928 54.2215 1.1944C54.1564 1.14952 54.0792 1.12549 54.0001 1.12549C53.921 1.12549 53.8438 1.14952 53.7787 1.1944C53.7136 1.23928 53.6637 1.30288 53.6356 1.37678L52.6028 3.97703C52.5758 4.04675 52.5295 4.10734 52.4694 4.15176C52.4092 4.19618 52.3377 4.22259 52.2631 4.22791L49.4945 4.40791C49.1367 4.43078 48.9927 4.89316 49.2713 5.12491L51.3916 6.88966C51.4506 6.93948 51.4943 7.00493 51.5178 7.07849C51.5413 7.15205 51.5436 7.23074 51.5243 7.30553L50.8913 9.79741C50.7837 10.2208 51.2341 10.5624 51.5963 10.3325L53.7938 8.94091C53.8556 8.90164 53.9273 8.88078 54.0005 8.88078C54.0737 8.88078 54.1453 8.90164 54.2071 8.94091H54.2067Z" fill="#CCCCCC"/>
</svg>
